<?xml version="1.0" standalone="no"?>
<!DOCTYPE svg PUBLIC "-//W3C//DTD SVG 20010904//EN"
 "http://www.w3.org/TR/2001/REC-SVG-20010904/DTD/svg10.dtd">
<svg version="1.0" xmlns="http://www.w3.org/2000/svg"
 width="512.000000pt" height="512.000000pt" viewBox="0 0 512.000000 512.000000"
 preserveAspectRatio="xMidYMid meet">
<metadata>
Created by potrace 1.14, written by Peter Selinger 2001-2017
</metadata>
<g transform="translate(0.000000,512.000000) scale(0.100000,-0.100000)"
fill="#000000" stroke="none">
<path d="M3925 4806 c-75 -17 -126 -38 -186 -76 -25 -17 -67 -33 -92 -36 -40
-6 -56 -2 -119 29 -99 48 -153 60 -251 55 -146 -8 -258 -82 -322 -211 -77
-158 -52 -314 74 -450 l56 -60 -1 -131 c-1 -105 -7 -150 -27 -226 -23 -88 -95
-273 -114 -291 -4 -4 -29 19 -55 51 l-46 58 14 43 c37 106 33 267 -9 387 -49
140 -177 313 -278 377 -160 102 -365 100 -526 -4 -87 -56 -196 -162 -250 -244
-70 -105 -95 -181 -101 -307 l-4 -106 -79 -37 c-154 -73 -256 -209 -267 -358
-6 -83 -24 -91 -65 -30 -73 110 -215 207 -362 247 -81 22 -292 30 -364 14
-184 -40 -337 -199 -372 -385 -24 -128 7 -359 64 -472 41 -80 112 -167 176
-213 34 -25 61 -47 61 -50 0 -3 -7 -30 -15 -60 -21 -79 -19 -195 5 -272 24
-79 84 -165 148 -212 51 -37 187 -106 210 -106 7 0 15 -8 19 -17 21 -61 81
-179 124 -245 l51 -77 -60 -56 c-52 -48 -114 -126 -124 -156 -2 -5 -100 30
-218 77 -213 86 -215 86 -255 73 -45 -16 -85 -67 -85 -109 0 -59 37 -91 165
-145 l120 -50 -197 -5 c-195 -5 -198 -5 -223 -30 -55 -55 -48 -135 15 -178 35
-24 36 -24 235 -18 l200 6 -125 -51 c-135 -55 -176 -85 -186 -135 -12 -64 46
-134 113 -134 15 0 119 37 231 81 112 45 204 80 206 78 1 -2 17 -28 35 -57 73
-116 223 -217 366 -247 92 -19 118 -19 282 5 176 26 1497 217 2183 316 349 50
539 82 568 94 27 12 50 32 63 55 12 20 39 45 63 57 122 61 302 221 383 339 83
120 152 295 180 454 23 133 14 322 -22 440 -29 101 -88 224 -140 297 l-35 48
60 30 c70 35 192 146 188 169 -2 9 -12 15 -23 14 -172 -22 -217 -13 -318 64
-40 30 -90 64 -112 75 -85 44 -192 59 -280 38 -22 -5 -41 -7 -43 -6 -2 2 4 41
13 87 8 46 18 132 22 190 l6 107 48 5 c111 13 253 118 306 225 25 51 28 67 28
162 0 97 -2 110 -32 172 -20 42 -57 94 -97 137 -37 39 -71 82 -76 96 -16 41
-12 104 11 175 50 160 15 351 -88 478 -97 120 -291 183 -448 148z m-404 -783
c11 -27 32 -63 45 -81 l25 -32 -107 -136 c-93 -116 -112 -135 -134 -132 -25 3
-25 4 -28 113 -2 61 0 138 3 171 l6 62 45 11 c24 6 59 25 77 41 17 16 36 30
40 30 4 0 17 -21 28 -47z m397 -288 c3 -3 0 -16 -6 -30 -16 -35 -15 -89 3
-132 8 -20 13 -38 10 -41 -3 -3 -72 -10 -154 -16 -120 -8 -153 -7 -165 3 -33
27 -18 58 74 159 l90 99 71 -19 c40 -10 75 -20 77 -23z m52 -417 c0 -7 5 -56
10 -108 5 -52 6 -134 3 -182 l-6 -87 -35 31 c-80 70 -195 102 -339 96 -51 -2
-93 -1 -93 3 0 16 54 70 113 115 81 61 163 101 251 124 86 23 96 24 96 8z
m-1361 -1660 c14 -107 50 -256 81 -325 l19 -44 -32 6 c-18 3 -74 12 -126 20
-52 8 -96 16 -98 19 -12 11 -23 205 -17 294 l6 103 72 60 71 60 6 -48 c4 -26
12 -92 18 -145z"/>
</g>
</svg>
